<?xml version="1.0" encoding="UTF-8"?>
<svg xmlns="http://www.w3.org/2000/svg" xmlns:xlink="http://www.w3.org/1999/xlink" width="287.45pt" height="287.45pt" viewBox="0 0 287.45 287.45">
<defs>
<g>
<g id="glyph-0-0">
<path d="M 8.34375 -7.140625 L 8.34375 0 L 7.5 0 L 7.5 -5.25 C 7.5 -5.320312 7.5 -5.394531 7.5 -5.46875 C 7.507812 -5.550781 7.515625 -5.632812 7.515625 -5.71875 L 5.0625 -1.25 C 4.988281 -1.101562 4.875 -1.03125 4.71875 -1.03125 L 4.578125 -1.03125 C 4.421875 -1.03125 4.304688 -1.101562 4.234375 -1.25 L 1.734375 -5.734375 C 1.753906 -5.554688 1.765625 -5.394531 1.765625 -5.25 L 1.765625 0 L 0.90625 0 L 0.90625 -7.140625 L 1.625 -7.140625 C 1.707031 -7.140625 1.769531 -7.128906 1.8125 -7.109375 C 1.863281 -7.097656 1.910156 -7.054688 1.953125 -6.984375 L 4.421875 -2.578125 C 4.460938 -2.503906 4.5 -2.421875 4.53125 -2.328125 C 4.570312 -2.242188 4.613281 -2.15625 4.65625 -2.0625 C 4.6875 -2.15625 4.71875 -2.242188 4.75 -2.328125 C 4.789062 -2.421875 4.832031 -2.507812 4.875 -2.59375 L 7.296875 -6.984375 C 7.335938 -7.054688 7.378906 -7.097656 7.421875 -7.109375 C 7.472656 -7.128906 7.539062 -7.140625 7.625 -7.140625 Z M 8.34375 -7.140625 "/>
</g>
<g id="glyph-0-1">
<path d="M 0.75 -2.859375 L 5.03125 -2.859375 L 5.03125 -2.1875 L 0.75 -2.1875 Z M 0.75 -4.53125 L 5.03125 -4.53125 L 5.03125 -3.859375 L 0.75 -3.859375 Z M 0.75 -4.53125 "/>
</g>
<g id="glyph-0-2">
<path d="M 1.21875 -3.140625 C 1.21875 -2.421875 1.304688 -1.726562 1.484375 -1.0625 C 1.671875 -0.394531 1.9375 0.242188 2.28125 0.859375 C 2.34375 0.953125 2.359375 1.023438 2.328125 1.078125 C 2.296875 1.140625 2.257812 1.1875 2.21875 1.21875 L 1.8125 1.453125 C 1.570312 1.078125 1.363281 0.703125 1.1875 0.328125 C 1.007812 -0.046875 0.863281 -0.421875 0.75 -0.796875 C 0.644531 -1.179688 0.566406 -1.566406 0.515625 -1.953125 C 0.472656 -2.335938 0.453125 -2.734375 0.453125 -3.140625 C 0.453125 -3.535156 0.472656 -3.925781 0.515625 -4.3125 C 0.566406 -4.695312 0.644531 -5.078125 0.75 -5.453125 C 0.863281 -5.835938 1.007812 -6.21875 1.1875 -6.59375 C 1.363281 -6.96875 1.570312 -7.347656 1.8125 -7.734375 L 2.21875 -7.484375 C 2.257812 -7.453125 2.296875 -7.40625 2.328125 -7.34375 C 2.359375 -7.289062 2.34375 -7.21875 2.28125 -7.125 C 1.9375 -6.519531 1.671875 -5.878906 1.484375 -5.203125 C 1.304688 -4.535156 1.21875 -3.847656 1.21875 -3.140625 Z M 1.21875 -3.140625 "/>
</g>
<g id="glyph-0-3">
<path d="M 1.796875 -4.453125 C 2.171875 -4.523438 2.515625 -4.5625 2.828125 -4.5625 C 3.203125 -4.5625 3.53125 -4.503906 3.8125 -4.390625 C 4.101562 -4.285156 4.34375 -4.132812 4.53125 -3.9375 C 4.71875 -3.75 4.859375 -3.523438 4.953125 -3.265625 C 5.054688 -3.003906 5.109375 -2.71875 5.109375 -2.40625 C 5.109375 -2.03125 5.039062 -1.6875 4.90625 -1.375 C 4.78125 -1.070312 4.601562 -0.8125 4.375 -0.59375 C 4.144531 -0.375 3.875 -0.207031 3.5625 -0.09375 C 3.25 0.0195312 2.910156 0.078125 2.546875 0.078125 C 2.335938 0.078125 2.132812 0.0546875 1.9375 0.015625 C 1.75 -0.0234375 1.570312 -0.078125 1.40625 -0.140625 C 1.238281 -0.210938 1.082031 -0.289062 0.9375 -0.375 C 0.789062 -0.46875 0.664062 -0.566406 0.5625 -0.671875 L 0.828125 -1.046875 C 0.890625 -1.140625 0.96875 -1.1875 1.0625 -1.1875 C 1.132812 -1.1875 1.210938 -1.160156 1.296875 -1.109375 C 1.378906 -1.054688 1.476562 -1 1.59375 -0.9375 C 1.71875 -0.875 1.859375 -0.816406 2.015625 -0.765625 C 2.179688 -0.710938 2.375 -0.6875 2.59375 -0.6875 C 2.84375 -0.6875 3.066406 -0.722656 3.265625 -0.796875 C 3.460938 -0.878906 3.632812 -0.992188 3.78125 -1.140625 C 3.925781 -1.285156 4.035156 -1.460938 4.109375 -1.671875 C 4.179688 -1.878906 4.21875 -2.113281 4.21875 -2.375 C 4.21875 -2.59375 4.1875 -2.789062 4.125 -2.96875 C 4.0625 -3.144531 3.960938 -3.296875 3.828125 -3.421875 C 3.703125 -3.554688 3.539062 -3.65625 3.34375 -3.71875 C 3.144531 -3.789062 2.914062 -3.828125 2.65625 -3.828125 C 2.46875 -3.828125 2.273438 -3.8125 2.078125 -3.78125 C 1.890625 -3.75 1.695312 -3.703125 1.5 -3.640625 L 0.9375 -3.796875 L 1.515625 -7.140625 L 4.890625 -7.140625 L 4.890625 -6.75 C 4.890625 -6.625 4.847656 -6.519531 4.765625 -6.4375 C 4.691406 -6.351562 4.5625 -6.3125 4.375 -6.3125 L 2.140625 -6.3125 Z M 1.796875 -4.453125 "/>
</g>
<g id="glyph-0-4">
<path d="M 0.640625 1.203125 C 0.617188 1.179688 0.601562 1.160156 0.59375 1.140625 C 0.582031 1.117188 0.578125 1.09375 0.578125 1.0625 C 0.578125 1.039062 0.582031 1.019531 0.59375 1 C 0.613281 0.976562 0.632812 0.957031 0.65625 0.9375 C 0.6875 0.894531 0.726562 0.84375 0.78125 0.78125 C 0.832031 0.726562 0.882812 0.660156 0.9375 0.578125 C 0.988281 0.492188 1.035156 0.398438 1.078125 0.296875 C 1.128906 0.203125 1.164062 0.101562 1.1875 0 C 1.175781 0 1.160156 0 1.140625 0 C 1.128906 0 1.117188 0 1.109375 0 C 0.941406 0 0.800781 -0.0546875 0.6875 -0.171875 C 0.582031 -0.285156 0.53125 -0.429688 0.53125 -0.609375 C 0.53125 -0.765625 0.582031 -0.894531 0.6875 -1 C 0.800781 -1.113281 0.945312 -1.171875 1.125 -1.171875 C 1.226562 -1.171875 1.316406 -1.148438 1.390625 -1.109375 C 1.460938 -1.078125 1.523438 -1.03125 1.578125 -0.96875 C 1.628906 -0.90625 1.664062 -0.832031 1.6875 -0.75 C 1.71875 -0.664062 1.734375 -0.570312 1.734375 -0.46875 C 1.734375 -0.320312 1.710938 -0.164062 1.671875 0 C 1.628906 0.15625 1.566406 0.3125 1.484375 0.46875 C 1.410156 0.632812 1.3125 0.789062 1.1875 0.9375 C 1.070312 1.082031 0.941406 1.21875 0.796875 1.34375 Z M 0.640625 1.203125 "/>
</g>
<g id="glyph-0-5">
<path d="M 1.4375 -3.140625 C 1.4375 -3.847656 1.34375 -4.535156 1.15625 -5.203125 C 0.976562 -5.878906 0.71875 -6.519531 0.375 -7.125 C 0.34375 -7.175781 0.320312 -7.21875 0.3125 -7.25 C 0.3125 -7.289062 0.316406 -7.320312 0.328125 -7.34375 C 0.335938 -7.375 0.351562 -7.398438 0.375 -7.421875 C 0.394531 -7.453125 0.421875 -7.472656 0.453125 -7.484375 L 0.84375 -7.734375 C 1.09375 -7.347656 1.300781 -6.96875 1.46875 -6.59375 C 1.644531 -6.21875 1.785156 -5.835938 1.890625 -5.453125 C 2.003906 -5.078125 2.085938 -4.695312 2.140625 -4.3125 C 2.191406 -3.925781 2.21875 -3.535156 2.21875 -3.140625 C 2.21875 -2.734375 2.191406 -2.335938 2.140625 -1.953125 C 2.085938 -1.566406 2.003906 -1.179688 1.890625 -0.796875 C 1.785156 -0.421875 1.644531 -0.046875 1.46875 0.328125 C 1.300781 0.703125 1.09375 1.078125 0.84375 1.453125 L 0.453125 1.21875 C 0.421875 1.207031 0.394531 1.1875 0.375 1.15625 C 0.351562 1.132812 0.335938 1.109375 0.328125 1.078125 C 0.316406 1.054688 0.3125 1.023438 0.3125 0.984375 C 0.320312 0.941406 0.34375 0.898438 0.375 0.859375 C 0.71875 0.242188 0.976562 -0.394531 1.15625 -1.0625 C 1.34375 -1.726562 1.4375 -2.421875 1.4375 -3.140625 Z M 1.4375 -3.140625 "/>
</g>
<g id="glyph-0-6">
<path d="M 6.703125 -7.140625 L 6.703125 0 L 6.21875 0 C 6.132812 0 6.066406 -0.0078125 6.015625 -0.03125 C 5.972656 -0.0625 5.925781 -0.109375 5.875 -0.171875 L 1.734375 -5.5625 C 1.742188 -5.476562 1.75 -5.394531 1.75 -5.3125 C 1.757812 -5.226562 1.765625 -5.15625 1.765625 -5.09375 L 1.765625 0 L 0.90625 0 L 0.90625 -7.140625 L 1.40625 -7.140625 C 1.445312 -7.140625 1.484375 -7.132812 1.515625 -7.125 C 1.546875 -7.125 1.570312 -7.117188 1.59375 -7.109375 C 1.625 -7.097656 1.648438 -7.082031 1.671875 -7.0625 C 1.691406 -7.039062 1.71875 -7.015625 1.75 -6.984375 L 5.875 -1.59375 C 5.863281 -1.6875 5.859375 -1.769531 5.859375 -1.84375 C 5.859375 -1.925781 5.859375 -2.003906 5.859375 -2.078125 L 5.859375 -7.140625 Z M 6.703125 -7.140625 "/>
</g>
<g id="glyph-0-7">
<path d="M 5.3125 -0.78125 L 5.3125 0 L 0.90625 0 L 0.90625 -7.140625 L 5.3125 -7.140625 L 5.3125 -6.359375 L 1.875 -6.359375 L 1.875 -3.984375 L 4.65625 -3.984375 L 4.65625 -3.21875 L 1.875 -3.21875 L 1.875 -0.78125 Z M 5.3125 -0.78125 "/>
</g>
<g id="glyph-0-8">
<path d="M 4.5625 -6.03125 C 4.53125 -5.976562 4.5 -5.9375 4.46875 -5.90625 C 4.4375 -5.882812 4.394531 -5.875 4.34375 -5.875 C 4.28125 -5.875 4.210938 -5.898438 4.140625 -5.953125 C 4.066406 -6.015625 3.972656 -6.078125 3.859375 -6.140625 C 3.742188 -6.210938 3.601562 -6.273438 3.4375 -6.328125 C 3.28125 -6.390625 3.085938 -6.421875 2.859375 -6.421875 C 2.640625 -6.421875 2.445312 -6.390625 2.28125 -6.328125 C 2.113281 -6.273438 1.972656 -6.195312 1.859375 -6.09375 C 1.753906 -6 1.671875 -5.882812 1.609375 -5.75 C 1.554688 -5.613281 1.53125 -5.46875 1.53125 -5.3125 C 1.53125 -5.113281 1.578125 -4.945312 1.671875 -4.8125 C 1.773438 -4.675781 1.90625 -4.5625 2.0625 -4.46875 C 2.226562 -4.382812 2.410156 -4.304688 2.609375 -4.234375 C 2.816406 -4.160156 3.023438 -4.085938 3.234375 -4.015625 C 3.453125 -3.941406 3.664062 -3.859375 3.875 -3.765625 C 4.082031 -3.679688 4.265625 -3.566406 4.421875 -3.421875 C 4.585938 -3.285156 4.71875 -3.113281 4.8125 -2.90625 C 4.90625 -2.707031 4.953125 -2.460938 4.953125 -2.171875 C 4.953125 -1.859375 4.898438 -1.5625 4.796875 -1.28125 C 4.691406 -1.007812 4.535156 -0.769531 4.328125 -0.5625 C 4.128906 -0.363281 3.878906 -0.207031 3.578125 -0.09375 C 3.285156 0.0195312 2.945312 0.078125 2.5625 0.078125 C 2.101562 0.078125 1.679688 -0.00390625 1.296875 -0.171875 C 0.921875 -0.335938 0.597656 -0.566406 0.328125 -0.859375 L 0.609375 -1.3125 C 0.628906 -1.34375 0.660156 -1.367188 0.703125 -1.390625 C 0.742188 -1.421875 0.785156 -1.4375 0.828125 -1.4375 C 0.867188 -1.4375 0.914062 -1.414062 0.96875 -1.375 C 1.03125 -1.34375 1.09375 -1.300781 1.15625 -1.25 C 1.226562 -1.195312 1.3125 -1.140625 1.40625 -1.078125 C 1.5 -1.015625 1.601562 -0.957031 1.71875 -0.90625 C 1.832031 -0.851562 1.960938 -0.804688 2.109375 -0.765625 C 2.253906 -0.734375 2.414062 -0.71875 2.59375 -0.71875 C 2.820312 -0.71875 3.023438 -0.75 3.203125 -0.8125 C 3.390625 -0.875 3.546875 -0.960938 3.671875 -1.078125 C 3.796875 -1.191406 3.890625 -1.328125 3.953125 -1.484375 C 4.015625 -1.648438 4.046875 -1.832031 4.046875 -2.03125 C 4.046875 -2.25 4 -2.425781 3.90625 -2.5625 C 3.8125 -2.695312 3.679688 -2.8125 3.515625 -2.90625 C 3.359375 -3 3.175781 -3.078125 2.96875 -3.140625 C 2.757812 -3.203125 2.550781 -3.265625 2.34375 -3.328125 C 2.132812 -3.398438 1.925781 -3.484375 1.71875 -3.578125 C 1.507812 -3.671875 1.320312 -3.785156 1.15625 -3.921875 C 1 -4.066406 0.875 -4.242188 0.78125 -4.453125 C 0.6875 -4.671875 0.640625 -4.941406 0.640625 -5.265625 C 0.640625 -5.515625 0.6875 -5.753906 0.78125 -5.984375 C 0.875 -6.222656 1.015625 -6.429688 1.203125 -6.609375 C 1.390625 -6.796875 1.617188 -6.941406 1.890625 -7.046875 C 2.171875 -7.160156 2.488281 -7.21875 2.84375 -7.21875 C 3.238281 -7.21875 3.597656 -7.15625 3.921875 -7.03125 C 4.253906 -6.90625 4.546875 -6.722656 4.796875 -6.484375 Z M 4.5625 -6.03125 "/>
</g>
<g id="glyph-0-9">
<path d="M 10.171875 -7.140625 L 7.9375 0 L 7.078125 0 L 5.265625 -5.453125 C 5.242188 -5.503906 5.222656 -5.554688 5.203125 -5.609375 C 5.191406 -5.671875 5.179688 -5.738281 5.171875 -5.8125 C 5.148438 -5.738281 5.128906 -5.671875 5.109375 -5.609375 C 5.097656 -5.554688 5.082031 -5.503906 5.0625 -5.453125 L 3.25 0 L 2.375 0 L 0.15625 -7.140625 L 0.953125 -7.140625 C 1.046875 -7.140625 1.117188 -7.117188 1.171875 -7.078125 C 1.234375 -7.035156 1.269531 -6.976562 1.28125 -6.90625 L 2.765625 -1.953125 C 2.785156 -1.859375 2.804688 -1.757812 2.828125 -1.65625 C 2.847656 -1.550781 2.867188 -1.441406 2.890625 -1.328125 C 2.910156 -1.441406 2.929688 -1.550781 2.953125 -1.65625 C 2.984375 -1.757812 3.015625 -1.859375 3.046875 -1.953125 L 4.71875 -6.90625 C 4.738281 -6.96875 4.773438 -7.019531 4.828125 -7.0625 C 4.890625 -7.113281 4.960938 -7.140625 5.046875 -7.140625 L 5.328125 -7.140625 C 5.421875 -7.140625 5.492188 -7.117188 5.546875 -7.078125 C 5.597656 -7.035156 5.632812 -6.976562 5.65625 -6.90625 L 7.34375 -1.953125 C 7.363281 -1.859375 7.382812 -1.757812 7.40625 -1.65625 C 7.4375 -1.5625 7.460938 -1.460938 7.484375 -1.359375 C 7.503906 -1.460938 7.523438 -1.5625 7.546875 -1.65625 C 7.566406 -1.757812 7.585938 -1.859375 7.609375 -1.953125 L 9.09375 -6.90625 C 9.101562 -6.96875 9.140625 -7.019531 9.203125 -7.0625 C 9.265625 -7.113281 9.335938 -7.140625 9.421875 -7.140625 Z M 10.171875 -7.140625 "/>
</g>
<g id="glyph-0-10">
<path d="M 1.546875 -4.03125 C 1.703125 -4.382812 1.894531 -4.65625 2.125 -4.84375 C 2.363281 -5.039062 2.648438 -5.140625 2.984375 -5.140625 C 3.085938 -5.140625 3.1875 -5.125 3.28125 -5.09375 C 3.382812 -5.070312 3.472656 -5.039062 3.546875 -5 L 3.484375 -4.328125 C 3.460938 -4.242188 3.414062 -4.203125 3.34375 -4.203125 C 3.289062 -4.203125 3.21875 -4.210938 3.125 -4.234375 C 3.039062 -4.253906 2.941406 -4.265625 2.828125 -4.265625 C 2.671875 -4.265625 2.53125 -4.238281 2.40625 -4.1875 C 2.28125 -4.144531 2.164062 -4.078125 2.0625 -3.984375 C 1.96875 -3.898438 1.878906 -3.789062 1.796875 -3.65625 C 1.722656 -3.519531 1.65625 -3.363281 1.59375 -3.1875 L 1.59375 0 L 0.703125 0 L 0.703125 -5.046875 L 1.21875 -5.046875 C 1.3125 -5.046875 1.375 -5.023438 1.40625 -4.984375 C 1.445312 -4.953125 1.472656 -4.894531 1.484375 -4.8125 Z M 1.546875 -4.03125 "/>
</g>
</g>
<clipPath id="clip-0">
<path clip-rule="nonzero" d="M 0 0 L 287.449219 0 L 287.449219 287.449219 L 0 287.449219 Z M 0 0 "/>
</clipPath>
<clipPath id="clip-1">
<path clip-rule="nonzero" d="M 283 141 L 287.449219 141 L 287.449219 146 L 283 146 Z M 283 141 "/>
</clipPath>
<clipPath id="clip-2">
<path clip-rule="nonzero" d="M 141 283 L 146 283 L 146 287.449219 L 141 287.449219 Z M 141 283 "/>
</clipPath>
</defs>
<path fill-rule="nonzero" fill="rgb(81.176758%, 84.70459%, 86.274719%)" fill-opacity="1" d="M 285.460938 143.722656 C 285.460938 65.445312 222.003906 1.988281 143.726562 1.988281 C 65.449219 1.988281 1.992188 65.445312 1.992188 143.722656 C 1.992188 222 65.449219 285.457031 143.726562 285.457031 C 222.003906 285.457031 285.460938 222 285.460938 143.722656 Z M 285.460938 143.722656 "/>
<g clip-path="url(#clip-0)">
<path fill="none" stroke-width="0.99628" stroke-linecap="butt" stroke-linejoin="miter" stroke="rgb(12.940979%, 12.940979%, 12.940979%)" stroke-opacity="1" stroke-miterlimit="10" d="M 283.467938 141.734344 C 283.467938 220.011687 220.010906 283.468719 141.733563 283.468719 C 63.456219 283.468719 -0.0008125 220.011687 -0.0008125 141.734344 C -0.0008125 63.457 63.456219 -0.00003125 141.733563 -0.00003125 C 220.010906 -0.00003125 283.467938 63.457 283.467938 141.734344 Z M 283.467938 141.734344 " transform="matrix(1, 0, 0, -1, 1.993, 285.457)"/>
</g>
<path fill-rule="nonzero" fill="rgb(0%, 0%, 0%)" fill-opacity="1" d="M 145.71875 143.722656 C 145.71875 142.621094 144.828125 141.730469 143.726562 141.730469 C 142.625 141.730469 141.734375 142.621094 141.734375 143.722656 C 141.734375 144.824219 142.625 145.714844 143.726562 145.714844 C 144.828125 145.714844 145.71875 144.824219 145.71875 143.722656 Z M 145.71875 143.722656 "/>
<path fill-rule="nonzero" fill="rgb(0%, 0%, 0%)" fill-opacity="1" d="M 145.71875 1.988281 C 145.71875 0.886719 144.828125 -0.00390625 143.726562 -0.00390625 C 142.625 -0.00390625 141.734375 0.886719 141.734375 1.988281 C 141.734375 3.089844 142.625 3.980469 143.726562 3.980469 C 144.828125 3.980469 145.71875 3.089844 145.71875 1.988281 Z M 145.71875 1.988281 "/>
<g clip-path="url(#clip-1)">
<path fill-rule="nonzero" fill="rgb(0%, 0%, 0%)" fill-opacity="1" d="M 287.453125 143.722656 C 287.453125 142.621094 286.5625 141.730469 285.460938 141.730469 C 284.359375 141.730469 283.46875 142.621094 283.46875 143.722656 C 283.46875 144.824219 284.359375 145.714844 285.460938 145.714844 C 286.5625 145.714844 287.453125 144.824219 287.453125 143.722656 Z M 287.453125 143.722656 "/>
</g>
<g clip-path="url(#clip-2)">
<path fill-rule="nonzero" fill="rgb(0%, 0%, 0%)" fill-opacity="1" d="M 145.71875 285.457031 C 145.71875 284.355469 144.828125 283.464844 143.726562 283.464844 C 142.625 283.464844 141.734375 284.355469 141.734375 285.457031 C 141.734375 286.558594 142.625 287.449219 143.726562 287.449219 C 144.828125 287.449219 145.71875 286.558594 145.71875 285.457031 Z M 145.71875 285.457031 "/>
</g>
<path fill-rule="nonzero" fill="rgb(0%, 0%, 0%)" fill-opacity="1" d="M 3.984375 143.722656 C 3.984375 142.621094 3.09375 141.730469 1.992188 141.730469 C 0.890625 141.730469 0 142.621094 0 143.722656 C 0 144.824219 0.890625 145.714844 1.992188 145.714844 C 3.09375 145.714844 3.984375 144.824219 3.984375 143.722656 Z M 3.984375 143.722656 "/>
<g fill="rgb(0%, 0%, 0%)" fill-opacity="1">
<use xlink:href="#glyph-0-0" x="147.247" y="138.744"/>
<use xlink:href="#glyph-0-1" x="156.502255" y="138.744"/>
<use xlink:href="#glyph-0-2" x="162.280563" y="138.744"/>
<use xlink:href="#glyph-0-3" x="164.940578" y="138.744"/>
<use xlink:href="#glyph-0-4" x="170.718886" y="138.744"/>
<use xlink:href="#glyph-0-3" x="172.980396" y="138.744"/>
<use xlink:href="#glyph-0-5" x="178.758704" y="138.744"/>
</g>
<g fill="rgb(0%, 0%, 0%)" fill-opacity="1">
<use xlink:href="#glyph-0-6" x="139.924" y="12.647"/>
</g>
<g fill="rgb(0%, 0%, 0%)" fill-opacity="1">
<use xlink:href="#glyph-0-7" x="276.188" y="147.292"/>
</g>
<g fill="rgb(0%, 0%, 0%)" fill-opacity="1">
<use xlink:href="#glyph-0-8" x="141.025" y="281.858"/>
</g>
<g fill="rgb(0%, 0%, 0%)" fill-opacity="1">
<use xlink:href="#glyph-0-9" x="5.513" y="147.292"/>
</g>
<path fill="none" stroke-width="0.99628" stroke-linecap="butt" stroke-linejoin="miter" stroke="rgb(0%, 0%, 0%)" stroke-opacity="1" stroke-miterlimit="10" d="M 141.733563 141.734344 L 241.717938 41.749969 " transform="matrix(1, 0, 0, -1, 1.993, 285.457)"/>
<path fill="none" stroke-width="0.79701" stroke-linecap="round" stroke-linejoin="round" stroke="rgb(0%, 0%, 0%)" stroke-opacity="1" stroke-miterlimit="10" d="M -1.733666 2.311793 C -1.590033 1.444474 -0.00178988 0.143495 0.434632 -0.000137003 C -0.00178988 -0.143769 -1.590033 -1.444748 -1.733666 -2.312067 " transform="matrix(0.7071, 0.7071, 0.7071, -0.7071, 243.7123, 243.7082)"/>
<g fill="rgb(0%, 0%, 0%)" fill-opacity="1">
<use xlink:href="#glyph-0-10" x="174.631" y="210.99"/>
<use xlink:href="#glyph-0-1" x="178.257386" y="210.99"/>
<use xlink:href="#glyph-0-3" x="184.035694" y="210.99"/>
</g>
</svg>
